<svg width="180" height="30" viewBox="0 0 180 30" fill="none" xmlns="http://www.w3.org/2000/svg">
<path fill-rule="evenodd" clip-rule="evenodd" d="M177.141 21.3163C177.211 21.3181 177.281 21.2986 177.341 21.2602C177.4 21.2218 177.446 21.1664 177.473 21.1014C177.499 21.0364 177.505 20.965 177.49 20.8966C177.474 20.8282 177.438 20.7661 177.386 20.7186L173.826 16.1559L177.312 12.0708C177.367 12.0242 177.405 11.962 177.422 11.8929C177.438 11.8238 177.433 11.7512 177.405 11.6854C177.378 11.6196 177.331 11.5639 177.27 11.5259C177.209 11.488 177.138 11.4698 177.066 11.4739H174.317C174.175 11.4694 174.034 11.5024 173.909 11.5697C173.784 11.637 173.68 11.736 173.607 11.8565L170.366 15.9182V11.8799C170.368 11.8254 170.359 11.771 170.339 11.7203C170.319 11.6695 170.288 11.6235 170.249 11.5853C170.209 11.547 170.162 11.5173 170.11 11.4981C170.059 11.4789 170.004 11.4707 169.949 11.4739H167.444C167.389 11.4707 167.334 11.4789 167.282 11.4981C167.231 11.5173 167.184 11.547 167.144 11.5853C167.105 11.6235 167.074 11.6695 167.054 11.7203C167.034 11.771 167.025 11.8254 167.027 11.8799V20.9095C167.025 20.964 167.034 21.0184 167.054 21.0691C167.074 21.1199 167.105 21.1659 167.144 21.2042C167.184 21.2424 167.231 21.2721 167.282 21.2913C167.334 21.3105 167.389 21.3187 167.444 21.3155H169.949C170.004 21.3187 170.059 21.3105 170.11 21.2913C170.162 21.2721 170.209 21.2424 170.249 21.2042C170.288 21.1659 170.319 21.1199 170.339 21.0691C170.359 21.0184 170.368 20.964 170.366 20.9095V16.4676L173.607 20.9352C173.68 21.0557 173.784 21.1546 173.909 21.2217C174.034 21.2889 174.175 21.3218 174.317 21.3171H177.14L177.141 21.3163ZM164.414 24.4638C164.412 24.5179 164.422 24.5718 164.443 24.622C164.463 24.6721 164.494 24.7175 164.533 24.7552C164.573 24.7929 164.62 24.822 164.671 24.8408C164.722 24.8596 164.777 24.8677 164.832 24.8644H179.582C179.636 24.8677 179.691 24.8596 179.743 24.8408C179.794 24.822 179.841 24.7929 179.88 24.7552C179.919 24.7175 179.95 24.6721 179.971 24.622C179.992 24.5718 180.001 24.5179 180 24.4638V23.3565C180.001 23.3024 179.992 23.2485 179.971 23.1984C179.95 23.1482 179.919 23.1028 179.88 23.0651C179.841 23.0275 179.794 22.9983 179.743 22.9795C179.691 22.9607 179.636 22.9526 179.582 22.9559H164.832C164.777 22.9526 164.722 22.9607 164.671 22.9795C164.62 22.9983 164.573 23.0275 164.533 23.0651C164.494 23.1028 164.463 23.1482 164.443 23.1984C164.422 23.2485 164.412 23.3024 164.414 23.3565V24.4638ZM164.414 9.43295C164.412 9.48706 164.422 9.54091 164.443 9.59107C164.463 9.64123 164.494 9.6866 164.533 9.72428C164.573 9.76197 164.62 9.79114 164.671 9.80995C164.722 9.82875 164.777 9.83677 164.832 9.8335H179.582C179.636 9.83677 179.691 9.82875 179.743 9.80995C179.794 9.79114 179.841 9.76197 179.88 9.72428C179.919 9.6866 179.95 9.64123 179.971 9.59107C179.992 9.54091 180.001 9.48706 180 9.43295V8.32558C180.001 8.27148 179.992 8.21762 179.971 8.16747C179.95 8.11731 179.919 8.07194 179.88 8.03425C179.841 7.99656 179.794 7.96739 179.743 7.94858C179.691 7.92978 179.636 7.92176 179.582 7.92503H164.832C164.777 7.92176 164.722 7.92978 164.671 7.94858C164.62 7.96739 164.573 7.99656 164.533 8.03425C164.494 8.07194 164.463 8.11731 164.443 8.16747C164.422 8.21762 164.412 8.27148 164.414 8.32558V9.42905V9.43295Z" fill="#FF6900"/>
<path fill-rule="evenodd" clip-rule="evenodd" d="M146.724 8.16927H140.116V24.5475H146.724V13.9944C148.46 11.9683 149.688 11.2942 151.327 11.2942C153.196 11.2942 154.609 12.252 154.609 14.5618V24.5475H161.219V14.1363C161.219 9.30469 156.843 7.84898 153.56 7.84898C152.298 7.81777 151.042 8.03748 149.868 8.49505C148.694 8.95263 147.625 9.63872 146.724 10.5126V8.16927ZM125.439 7.84898C118.967 7.84898 114.361 11.4018 114.361 16.4087C114.361 21.5247 119.149 24.8624 126.533 24.8624C129.801 24.9779 133.041 24.2298 135.919 22.6952V19.4643C132.818 21.2044 130.767 21.8068 128.124 21.8068C123.976 21.8068 121.419 20.1025 121.196 17.1919H136.283C136.606 11.2217 131.546 7.84898 125.439 7.84898ZM121.337 14.4908C121.611 12.2184 123.297 10.9061 125.895 10.9061C128.447 10.9061 130.179 12.2535 130.452 14.4908H121.337ZM96.587 8.16927H89.9763V24.5475H96.587V13.9944C98.3176 11.9683 99.5496 11.2942 101.19 11.2942C103.058 11.2942 104.473 12.252 104.473 14.5618V24.5475H111.082V14.1363C111.082 9.30469 106.705 7.84898 103.424 7.84898C102.162 7.81756 100.906 8.03717 99.7317 8.49475C98.5572 8.95232 97.4877 9.63853 96.587 10.5126V8.16927ZM84.5977 8.16927H77.9886V24.5413H84.5977V8.16927ZM81.2707 0C79.2657 0 77.6242 1.27959 77.6242 2.84128C77.6242 4.40297 79.2657 5.68256 81.2707 5.68256C83.2757 5.68256 84.9164 4.40297 84.9164 2.84128C84.9164 1.27959 83.2757 0 81.2707 0ZM59.0274 8.16849H52.4176V24.5475H59.0274V13.9944C60.7627 11.9683 61.9893 11.2942 63.6315 11.2942C65.5001 11.2942 66.9135 12.252 66.9135 14.5618V24.5475H73.5211V14.1363C73.5211 9.30469 69.1465 7.84898 65.8653 7.84898C64.603 7.81759 63.3472 8.03721 62.1726 8.49478C60.9979 8.95235 59.9284 9.63855 59.0274 10.5126V8.16927V8.16849ZM33.5936 8.16849H26.9845V24.5475H33.5936V13.9944C35.3289 11.9683 36.557 11.2942 38.1977 11.2942C40.067 11.2942 41.4797 12.252 41.4797 14.5618V24.5475H48.0896V14.1363C48.0896 9.30469 43.7135 7.84898 40.4307 7.84898C39.1685 7.81769 37.9129 8.03736 36.7384 8.49493C35.5639 8.9525 34.4945 9.63864 33.5936 10.5126V8.16927V8.16849ZM23.7025 16.3744C23.7025 10.0871 17.0484 7.84976 11.8962 7.84976C5.69806 7.84898 0 10.762 0 16.3378C0 21.4888 5.0142 24.8593 11.8962 24.8593C16.5499 24.8593 23.7025 22.8705 23.7025 16.3705M16.6367 16.2271C16.6367 19.8157 14.9968 21.8029 11.8962 21.8029C9.38949 21.8029 7.06578 20.5607 7.06578 16.3339C7.06578 12.6408 9.02587 10.9007 11.8962 10.9007C15.2248 10.9007 16.6367 13.0328 16.6367 16.2271Z" fill="#032953"/>
</svg>
