<?xml version="1.0" encoding="utf-8"?>
<!DOCTYPE svg PUBLIC "-//W3C//DTD SVG 1.1//EN" "http://www.w3.org/Graphics/SVG/1.1/DTD/svg11.dtd">
<svg version="1.1" id="Warstwa_1_kopia" xmlns="http://www.w3.org/2000/svg" xmlns:xlink="http://www.w3.org/1999/xlink" x="0px"
	 y="0px" width="224.44px" height="72.683px" viewBox="0 0 224.44 72.683" enable-background="new 0 0 224.44 72.683"
	 xml:space="preserve">
<g>
	<g>
		<path d="M114.734,11.644c-0.816-3.591-3.947-5.438-7.129-5.438c-3.281,0-5.383,1.59-5.383,3.744c0,2.872,4.053,3.899,8.564,5.438
			c5.232,1.795,11.234,4.564,11.234,10.976c0,6.411-5.541,10.976-13.746,10.976c-7.54,0-12.721-4.257-14.67-10.771l6.873-1.847
			c0.77,3.232,3.641,6.258,8.104,6.258c3.846,0,5.848-1.898,5.848-4.309c0-3.642-4.873-4.514-9.951-6.309
			c-4.258-1.539-9.592-3.744-9.592-10.001C94.887,4.77,100.426,0,108.018,0c6.717,0,12.053,4.103,13.593,9.745L114.734,11.644z"/>
		<path d="M140.584,0.717c8.617,0,13.848,4.514,13.848,12.002c0,7.54-5.23,12.054-13.848,12.054h-5.693v11.848h-7.129V0.717H140.584
			z M140.43,18.105c4.207,0,6.619-2.051,6.619-5.385c0-3.384-2.516-5.334-6.619-5.334h-5.539v10.719H140.43z"/>
		<path d="M185.152,29.953v6.668h-25.696V0.717h25.388v6.668h-18.258v7.642h14.412v6.257h-14.412v8.668H185.152z"/>
		<path d="M216.59,11.386c-1.896-2.667-5.486-4.36-9.024-4.36c-6.718,0-11.183,4.822-11.183,11.643
			c0,7.027,4.77,11.541,11.183,11.541c4.103,0,7.897-2.154,9.692-5.282l7.183,1.898c-2.978,6.359-9.335,10.514-16.875,10.514
			c-10.312,0-18.618-7.848-18.618-18.67C188.947,7.847,197.254,0,207.565,0c7.077,0,13.131,3.744,16.312,9.489L216.59,11.386z"/>
		<path d="M114.08,72.683l-11.051-14.971l-4.754,4.754v10.217h-3.42V43.491h3.42v7.797c0,4.672-0.084,7.049-0.043,7.049h0.043
			c0.041,0,2.627-2.711,4.881-4.963l9.879-9.883h4.215l-11.928,11.927l12.803,17.265H114.08z"/>
		<path d="M142.312,65.052h-14.64l-3.252,7.631h-3.67l12.679-29.191h3.126l12.679,29.191h-3.669L142.312,65.052z M141.018,62.007
			l-4.631-10.842c-0.623-1.502-1.332-3.545-1.373-3.545h-0.043c-0.042,0-0.752,2.043-1.377,3.545l-4.629,10.842H141.018z"/>
		<path d="M164.368,43.491c5.005,0,8.427,2.961,8.427,7.172c0,2.961-2.506,5.506-4.84,5.965v0.041
			c2.836,0.375,6.715,3.252,6.715,7.424c0,5.045-3.504,8.59-9.633,8.59h-11.638V43.491H164.368z M163.701,55.626
			c3.377,0,5.672-2.126,5.672-4.629c0-2.752-2.295-4.545-5.672-4.545h-6.881v9.174H163.701z M164.828,69.722
			c3.586,0,6.297-2.17,6.297-5.672c0-3.336-2.962-5.713-6.506-5.713h-7.799v11.385H164.828z"/>
		<path d="M199.436,69.472v3.211H180.38V43.491h3.419v25.98H199.436z"/>
		<path d="M223.873,69.472v3.211h-19.725V43.491h19.475v3.211h-16.055v9.008h12.887v3.045h-12.887v10.717H223.873z"/>
	</g>
	<g>
		<rect y="0.692" fill="#FFE300" width="71.977" height="71.977"/>
		<g>
			<path fill="#ED1C24" d="M30.746,18.68c-7.096,0-12.868,5.772-12.868,12.868s5.772,12.869,12.868,12.869h12.508v-5.162H30.746
				c-4.249,0-7.706-3.458-7.706-7.707s3.457-7.706,7.706-7.706h23.312V18.68H30.746z"/>
			<path fill="#ED1C24" d="M41.189,28.932H28.682v5.162h12.508c4.249,0,7.706,3.458,7.706,7.707s-3.457,7.706-7.706,7.706H17.878
				v5.162h23.312c7.096,0,12.868-5.772,12.868-12.868S48.285,28.932,41.189,28.932z"/>
		</g>
	</g>
</g>
</svg>
